<svg xmlns="http://www.w3.org/2000/svg" viewBox="0 0 800 450">
  <defs>
    <linearGradient id="bg" x1="0" y1="0" x2="1" y2="1">
      <stop offset="0%" stop-color="#16a34a" />
      <stop offset="100%" stop-color="#0f172a" />
    </linearGradient>
  </defs>
  <rect width="800" height="450" rx="40" fill="url(#bg)" />
  <g fill="#ffffff" opacity="0.12">
    <path d="M120 116c26-18 56-26 86-22c46 6 82 38 106 76 22 34 48 62 86 72c42 12 82 0 118-22" stroke="#ffffff" stroke-width="22" stroke-linecap="round" fill="none" />
    <circle cx="560" cy="180" r="48" />
  </g>
  <g transform="translate(150 120)">
    <rect x="0" y="0" width="280" height="230" rx="28" fill="#111827" opacity="0.85" />
    <path d="M34 48c42-18 78-12 106 8v146c-28-20-64-26-106-8V48Z" fill="#f8fafc" />
    <path d="M246 48c-42-18-78-12-106 8v146c28-20 64-26 106-8V48Z" fill="#dbeafe" />
    <path d="M140 56v146" stroke="#94a3b8" stroke-width="8" />
    <path d="M58 88h58M58 116h58M58 144h42M222 88h-58M222 116h-58M222 144h-42" stroke="#38bdf8" stroke-width="8" stroke-linecap="round" opacity="0.8" />
  </g>
  <g transform="translate(500 132)">
    <rect x="0" y="0" width="150" height="190" rx="22" fill="#111827" opacity="0.85" />
    <rect x="28" y="28" width="94" height="134" rx="8" fill="#34d399" />
    <path d="M48 58h54M48 82h54M48 106h38" stroke="#064e3b" stroke-width="8" stroke-linecap="round" />
    <path d="M28 28h-12v134h106" fill="none" stroke="#a7f3d0" stroke-width="7" stroke-linecap="round" />
  </g>
  <text x="50%" y="68%" text-anchor="middle" font-family="Inter, sans-serif" font-size="48" fill="white" font-weight="700">Library</text>
  <text x="50%" y="78%" text-anchor="middle" font-family="Inter, sans-serif" font-size="30" fill="#d1d5db">Management</text>
</svg>